<mxfile host="Electron" modified="2023-11-08T14:22:23.214Z" agent="Mozilla/5.0 (Windows NT 10.0; Win64; x64) AppleWebKit/537.36 (KHTML, like Gecko) draw.io/22.0.3 Chrome/114.0.5735.289 Electron/25.8.4 Safari/537.36" etag="4Zq0OntLlHDvAloKGXgJ" version="22.0.3" type="device">
  <diagram name="Page-1" id="PFuam8-ZSgRhQEDc4WZU">
    <mxGraphModel dx="2284" dy="854" grid="1" gridSize="10" guides="1" tooltips="1" connect="1" arrows="1" fold="1" page="1" pageScale="1" pageWidth="850" pageHeight="1100" math="0" shadow="0">
      <root>
        <mxCell id="0" />
        <mxCell id="1" parent="0" />
        <mxCell id="8sjglLNH34c4arJzGEXB-1" value="&amp;lt;&amp;lt;device&amp;gt;&amp;gt;&lt;br&gt;Helios" style="verticalAlign=top;align=center;spacingTop=8;spacingLeft=2;spacingRight=12;shape=cube;size=10;direction=south;fontStyle=4;html=1;whiteSpace=wrap;" parent="1" vertex="1">
          <mxGeometry x="190" y="110" width="750" height="410" as="geometry" />
        </mxCell>
        <mxCell id="9aiQtk9AjkWQs-c2ufMn-4" value="Student VM" style="verticalAlign=top;align=center;spacingTop=8;spacingLeft=2;spacingRight=12;shape=cube;size=10;direction=south;fontStyle=4;html=1;whiteSpace=wrap;" vertex="1" parent="1">
          <mxGeometry x="230" y="180" width="530" height="300" as="geometry" />
        </mxCell>
        <mxCell id="9aiQtk9AjkWQs-c2ufMn-3" style="edgeStyle=orthogonalEdgeStyle;rounded=0;orthogonalLoop=1;jettySize=auto;html=1;endArrow=none;endFill=0;" edge="1" parent="1" source="8sjglLNH34c4arJzGEXB-1" target="9aiQtk9AjkWQs-c2ufMn-1">
          <mxGeometry relative="1" as="geometry" />
        </mxCell>
        <mxCell id="9aiQtk9AjkWQs-c2ufMn-1" value="PC" style="verticalAlign=top;align=center;spacingTop=8;spacingLeft=2;spacingRight=12;shape=cube;size=10;direction=south;fontStyle=4;html=1;whiteSpace=wrap;" vertex="1" parent="1">
          <mxGeometry x="-250" y="170" width="360" height="220" as="geometry" />
        </mxCell>
        <mxCell id="9aiQtk9AjkWQs-c2ufMn-2" value="Browser" style="verticalAlign=top;align=center;spacingTop=8;spacingLeft=2;spacingRight=12;shape=cube;size=10;direction=south;fontStyle=4;html=1;whiteSpace=wrap;" vertex="1" parent="1">
          <mxGeometry x="-190" y="220" width="230" height="150" as="geometry" />
        </mxCell>
        <mxCell id="9aiQtk9AjkWQs-c2ufMn-6" style="edgeStyle=orthogonalEdgeStyle;rounded=0;orthogonalLoop=1;jettySize=auto;html=1;endArrow=none;endFill=0;" edge="1" parent="1" source="8sjglLNH34c4arJzGEXB-6" target="8sjglLNH34c4arJzGEXB-5">
          <mxGeometry relative="1" as="geometry" />
        </mxCell>
        <mxCell id="9aiQtk9AjkWQs-c2ufMn-7" style="edgeStyle=orthogonalEdgeStyle;rounded=0;orthogonalLoop=1;jettySize=auto;html=1;endArrow=none;endFill=0;" edge="1" parent="1" source="8sjglLNH34c4arJzGEXB-6" target="9aiQtk9AjkWQs-c2ufMn-5">
          <mxGeometry relative="1" as="geometry" />
        </mxCell>
        <mxCell id="8sjglLNH34c4arJzGEXB-6" value="&amp;lt;&amp;lt;execution environment&amp;gt;&amp;gt;&lt;br&gt;Uvicorn" style="verticalAlign=top;align=center;spacingTop=8;spacingLeft=2;spacingRight=12;shape=cube;size=10;direction=south;fontStyle=4;html=1;whiteSpace=wrap;" parent="1" vertex="1">
          <mxGeometry x="300" y="240" width="300" height="180" as="geometry" />
        </mxCell>
        <mxCell id="8sjglLNH34c4arJzGEXB-2" value="Web Page" style="shape=module;align=left;spacingLeft=20;align=center;verticalAlign=top;whiteSpace=wrap;html=1;" parent="1" vertex="1">
          <mxGeometry x="-130" y="280" width="100" height="50" as="geometry" />
        </mxCell>
        <mxCell id="8sjglLNH34c4arJzGEXB-3" value="Application" style="shape=module;align=left;spacingLeft=20;align=center;verticalAlign=top;whiteSpace=wrap;html=1;" parent="1" vertex="1">
          <mxGeometry x="395" y="305" width="110" height="50" as="geometry" />
        </mxCell>
        <mxCell id="8sjglLNH34c4arJzGEXB-5" value="Postgres" style="shape=module;align=left;spacingLeft=20;align=center;verticalAlign=top;whiteSpace=wrap;html=1;" parent="1" vertex="1">
          <mxGeometry x="810" y="305" width="100" height="50" as="geometry" />
        </mxCell>
        <mxCell id="9aiQtk9AjkWQs-c2ufMn-5" value="Keycloak" style="shape=module;align=left;spacingLeft=20;align=center;verticalAlign=top;whiteSpace=wrap;html=1;" vertex="1" parent="1">
          <mxGeometry x="640" y="400" width="100" height="50" as="geometry" />
        </mxCell>
      </root>
    </mxGraphModel>
  </diagram>
</mxfile>
